<svg width="100" height="100" viewBox="0 0 100 100" fill="none" xmlns="http://www.w3.org/2000/svg">
<g id="&#209;&#132;&#208;&#190;&#209;&#130;&#208;&#190;">
<path id="Vector" d="M50 100C77.6142 100 100 77.6142 100 50C100 22.3858 77.6142 0 50 0C22.3858 0 0 22.3858 0 50C0 77.6142 22.3858 100 50 100Z" fill="#C7FAFF"/>
<g id="Group">
<g id="Clip path group">
<mask id="mask0_32_1067" style="mask-type:luminance" maskUnits="userSpaceOnUse" x="0" y="0" width="100" height="100">
<g id="SVGID_00000093151687865102197530000001301947973500024221_">
<path id="Vector_2" d="M50 100C77.6142 100 100 77.6142 100 50C100 22.3858 77.6142 0 50 0C22.3858 0 0 22.3858 0 50C0 77.6142 22.3858 100 50 100Z" fill="white"/>
</g>
</mask>
<g mask="url(#mask0_32_1067)">
<g id="Group_2">
<g id="Group_3">
<path id="Vector_3" d="M69.3065 104.087H31.5437C30.6637 104.087 29.942 103.365 29.942 102.485V65.3847C29.942 64.5047 30.6637 63.783 31.5437 63.783H69.3098C70.1898 63.783 70.9116 64.5047 70.9116 65.3847V102.485C70.9116 103.368 70.1898 104.087 69.3065 104.087Z" fill="white"/>
<path id="Vector_4" d="M62.8996 104.697H37.954C33.2015 104.697 29.3323 100.831 29.3323 96.0748V71.7916C29.3323 67.0391 33.1982 63.1699 37.954 63.1699H62.8996C67.6521 63.1699 71.5213 67.0358 71.5213 71.7916V96.0748C71.518 100.831 67.6521 104.697 62.8996 104.697ZM37.954 64.3926C33.8705 64.3926 30.5517 67.7148 30.5517 71.7949V96.0748C30.5517 100.158 33.8738 103.477 37.954 103.477H62.8996C66.983 103.477 70.3019 100.155 70.3019 96.0748V71.7916C70.3019 67.7082 66.9798 64.3894 62.8996 64.3894H37.954V64.3926Z" fill="#371A45"/>
</g>
<g id="Group_4">
<g id="Group_5">
<path id="Vector_5" d="M74.827 104.11C80.9756 104.11 85.9601 99.1255 85.9601 92.9768C85.9601 86.8282 80.9756 81.8438 74.827 81.8438C68.6784 81.8438 63.6939 86.8282 63.6939 92.9768C63.6939 99.1255 68.6784 104.11 74.827 104.11Z" fill="white"/>
</g>
<g id="Group_6">
<path id="Vector_6" d="M74.827 104.11C80.9756 104.11 85.9601 99.1255 85.9601 92.9768C85.9601 86.8282 80.9756 81.8438 74.827 81.8438C68.6784 81.8438 63.6939 86.8282 63.6939 92.9768C63.6939 99.1255 68.6784 104.11 74.827 104.11Z" fill="white"/>
</g>
<g id="Group_7">
<path id="Vector_7" d="M85.9601 92.9768C85.9601 99.1267 80.9736 104.11 74.827 104.11C68.6771 104.11 63.6939 99.1234 63.6939 92.9768C63.6939 87.875 67.1248 83.574 71.8081 82.259C72.7671 81.9888 73.7822 81.8438 74.827 81.8438C76.3793 81.8438 77.8624 82.1634 79.2038 82.7369C83.1785 84.4342 85.9601 88.3825 85.9601 92.9768Z" fill="white"/>
</g>
<g id="Group_8" opacity="0.25">
<path id="Vector_8" d="M79.2037 82.7368C81.28 84.8164 83.3564 86.8927 85.4327 88.9723C82.4599 88.5768 80.0046 88.1154 78.1985 87.7364C74.8599 87.0377 73.6075 86.5961 72.9055 86.3258C70.816 85.5217 69.2077 84.5692 68.1431 83.8573C69.1352 83.2015 71.5411 81.8172 74.8269 81.8469C76.7154 81.8568 78.2315 82.3347 79.2037 82.7368Z" fill="#9898A3"/>
</g>
<g id="Group_9" opacity="0.25">
<path id="Vector_9" d="M85.7095 95.343C84.6252 100.356 80.1661 104.11 74.8269 104.11C69.4878 104.11 65.0319 100.353 63.9443 95.343C66.3469 97.8939 70.3249 99.5616 74.8269 99.5616C79.3289 99.5583 83.3069 97.8939 85.7095 95.343Z" fill="#9898A3"/>
</g>
<g id="Group_10">
<path id="Vector_10" d="M74.827 104.469C68.4892 104.469 63.3347 99.3144 63.3347 92.9767C63.3347 86.6389 68.4892 81.4844 74.827 81.4844C81.1647 81.4844 86.3193 86.6389 86.3193 92.9767C86.3193 99.3144 81.1647 104.469 74.827 104.469ZM74.827 82.1996C68.8847 82.1996 64.0531 87.0344 64.0531 92.9734C64.0531 98.9157 68.888 103.747 74.827 103.747C80.7659 103.747 85.6008 98.9124 85.6008 92.9734C85.6008 87.0344 80.7692 82.1996 74.827 82.1996Z" fill="#371A45"/>
</g>
<g id="Group_11">
<g id="Group_12">
<path id="Vector_11" d="M85.937 92.1856C85.8513 92.0307 85.8843 91.8527 85.8612 91.6879C85.2284 87.3441 82.8818 84.3285 78.8445 82.6312C77.8426 82.2093 76.7847 81.9918 75.7004 81.9226C75.6608 81.9193 75.6114 81.9391 75.5883 81.8831H75.5026C75.3444 81.9655 75.1829 81.9424 75.0247 81.8831H74.6787C74.5205 81.9424 74.359 81.9687 74.2008 81.8831H74.0261C74.0063 81.9028 73.98 81.9061 73.9569 81.9061C73.7328 81.9688 73.4988 81.9589 73.2747 81.9984C71.1819 82.3708 69.3923 83.1157 67.9355 84.2428C67.5796 84.5263 67.2368 84.8361 66.9106 85.1656C66.7985 85.2777 66.6897 85.393 66.5843 85.5117C66.5711 85.5282 66.5579 85.5414 66.5447 85.5578C65.5428 86.6784 64.8112 87.9571 64.3036 89.3809C63.8686 90.597 63.717 91.8428 63.7367 93.1051C63.74 93.4347 63.7565 93.7643 63.7829 94.0972C63.7961 94.2817 63.8158 94.4663 63.8422 94.6475C64.0301 96.0449 64.5244 97.3567 65.2396 98.586C66.0701 100.01 67.1709 101.19 68.5222 102.126C69.679 102.926 70.9479 103.48 72.3156 103.813C73.3373 104.06 74.3722 104.077 75.4103 104.064C76.1782 104.054 76.933 103.942 77.6745 103.741C79.9453 103.124 81.8568 101.928 83.3762 100.125C84.6681 98.5926 85.4855 96.8293 85.8315 94.8519C85.8941 94.4959 85.8843 94.1367 85.937 93.7808V93.6094C85.8546 93.4512 85.8777 93.293 85.937 93.1315V92.7854C85.8777 92.6272 85.8513 92.4657 85.937 92.3076V92.1856ZM84.9219 89.8324C84.6253 89.3611 84.3221 88.8997 83.9727 88.468C83.5772 87.9769 83.1422 87.5254 82.6577 87.1266C82.5325 87.0244 82.4665 86.9091 82.427 86.7542C82.2391 86.0061 81.8008 85.192 81.3361 84.6482C83.0763 85.9995 84.2726 87.7264 84.9219 89.8324ZM73.39 103.319C72.6913 103.401 72.1113 103.177 71.5345 102.989C70.3909 102.617 69.3395 102.053 68.3871 101.318C68.275 101.229 68.2256 101.14 68.219 100.998C68.2025 100.603 68.1728 100.207 68.1432 99.812C68.1333 99.6999 68.1695 99.6505 68.2783 99.6143C69.4054 99.2451 70.5293 98.8694 71.6499 98.4871C71.7487 98.4541 71.8278 98.4673 71.9168 98.5036C73.2219 99.0705 74.5271 99.634 75.8355 100.198C75.9376 100.24 75.9937 100.296 76.02 100.409C76.1815 101.101 76.3496 101.793 76.5243 102.485C76.5605 102.623 76.5243 102.689 76.3991 102.749C75.8124 103.032 75.1796 103.134 74.5435 103.213C74.1415 103.263 73.7328 103.322 73.39 103.319ZM81.0395 101.499C80.3803 101.911 79.6355 102.076 78.8841 102.221C78.3765 102.32 77.8624 102.393 77.3515 102.475C77.2527 102.485 77.2197 102.422 77.2032 102.346C77.0285 101.618 76.8539 100.893 76.6759 100.165C76.6561 100.082 76.6891 100.03 76.7418 99.9735C77.6745 99.0078 78.6006 98.0422 79.53 97.0732C79.5893 97.0106 79.652 96.9842 79.7344 96.9776C80.934 96.8689 82.1304 96.7568 83.3267 96.6382C83.4981 96.6217 83.5443 96.6711 83.5542 96.8392C83.5937 97.4226 83.653 98.0026 83.7058 98.5827C83.7123 98.6585 83.7156 98.7211 83.6695 98.787C82.9411 99.8384 82.137 100.814 81.0395 101.499ZM79.4048 87.5584C79.4443 87.4529 79.4971 87.4232 79.6091 87.4331C80.4133 87.4924 81.2207 87.5419 82.0249 87.5946C82.1106 87.6012 82.1699 87.6309 82.2325 87.6836C83.4124 88.6987 84.2957 89.9214 84.8263 91.3913C84.8494 91.4539 84.8757 91.51 84.8692 91.5792C84.6714 93.0524 84.3946 94.5058 83.6234 95.8109C83.5739 95.8933 83.5212 95.9362 83.4223 95.9461C82.2029 96.0548 80.9835 96.1636 79.764 96.2789C79.675 96.2888 79.6355 96.2526 79.5959 96.1834C78.9368 95.0266 78.2776 93.873 77.6152 92.7195C77.5657 92.6338 77.5723 92.5646 77.6053 92.4756C78.2084 90.8376 78.8083 89.1964 79.4048 87.5584ZM78.7555 87.3244C78.159 88.9426 77.5658 90.5608 76.9758 92.1823C76.933 92.3043 76.8638 92.3405 76.7451 92.3603C75.351 92.6239 73.9602 92.8942 72.5694 93.1644C72.5265 93.1743 72.4837 93.1776 72.4244 93.1875C72.3617 93.204 72.3255 93.1447 72.2826 93.0985C71.0929 91.8725 69.9031 90.6432 68.7133 89.4172C68.6573 89.3578 68.6178 89.3051 68.6375 89.2095C68.8583 88.0494 69.356 87.0146 70.0382 86.0621C70.1865 85.8512 70.4436 85.7655 70.6611 85.6468C72.2398 84.7899 73.9239 84.3747 75.7267 84.4735C76.0299 84.49 76.2606 84.5757 76.4781 84.8031C77.2032 85.5578 77.9481 86.2895 78.6929 87.0277C78.7819 87.12 78.8017 87.1958 78.7555 87.3244ZM77.6284 82.7696C77.0846 83.0234 76.6495 83.3629 76.2277 83.7254C76.1387 83.8012 76.053 83.8012 75.9475 83.7946C74.2239 83.6562 72.5826 83.9792 71.0105 84.6878C70.9577 84.7108 70.905 84.7372 70.8556 84.7603C70.3414 84.9943 69.9822 85.0865 69.501 84.8624C69.2044 84.724 68.8814 84.6449 68.5617 84.5361C70.4238 82.9146 74.0788 81.7842 77.6284 82.7696ZM65.2792 94.1235C65.2594 93.0886 65.4472 92.1164 65.7636 91.1672C65.79 91.0914 65.823 91.0288 65.8922 90.9761C66.5447 90.4718 67.2797 90.1389 68.0542 89.8753C68.1629 89.839 68.1992 89.8984 68.2519 89.9544C69.412 91.1507 70.5688 92.3471 71.7322 93.5435C71.8113 93.6259 71.8344 93.705 71.8245 93.8104C71.729 94.809 71.6367 95.8044 71.5444 96.803C71.518 97.0831 71.4884 97.3633 71.4719 97.6434C71.462 97.7719 71.4257 97.8444 71.2873 97.8906C70.1865 98.2498 69.0891 98.6189 67.9949 98.9881C67.8861 99.0243 67.8169 99.0144 67.7246 98.9419C66.9106 98.3025 66.2382 97.5379 65.6615 96.6843C65.4934 96.4338 65.4868 96.1109 65.4308 95.8142C65.322 95.2441 65.2627 94.6706 65.2792 94.1235ZM65.144 88.791C65.1539 88.7679 65.1638 88.7448 65.1737 88.7218C65.1836 89.3084 65.1935 89.8753 65.2396 90.4422C65.2429 90.5048 65.2396 90.5674 65.2132 90.6333C64.7057 91.9417 64.5145 93.2996 64.5936 94.7003C64.5969 94.7332 64.5936 94.7662 64.5936 94.8354C64.4256 94.6014 64.3794 94.374 64.353 94.1301C64.152 92.2845 64.4091 90.5015 65.144 88.791Z" fill="#371A45"/>
</g>
</g>
</g>
<g id="Group_13">
<g id="Group_14">
<path id="Vector_12" d="M23.2121 72.0619V72.0685C21.2775 72.1114 19.2506 72.9254 17.807 74.5041L17.7181 74.425C17.7181 74.425 18.0575 69.488 17.7279 67.5665C17.4017 65.6451 24.3195 63.516 23.2121 72.0619Z" fill="white"/>
</g>
<g id="Group_15">
<path id="Vector_13" d="M17.8696 69.6165C17.8993 71.7851 17.718 74.425 17.718 74.425L17.807 74.5041C18.8748 73.3374 20.259 72.5892 21.6927 72.2597C20.18 71.7587 18.8715 70.8194 17.8696 69.6165Z" fill="#E5E5E5"/>
</g>
<g id="Group_16">
<path id="Vector_14" d="M17.807 75.0509C17.6785 75.0509 17.5466 75.0048 17.4412 74.9125L17.3522 74.8334C17.2269 74.7214 17.1577 74.5566 17.1709 74.3852C17.1742 74.3357 17.5038 69.491 17.1874 67.6552C17.0786 67.0257 17.4313 66.3699 18.13 65.8986C19.0594 65.2691 20.6578 64.9626 21.9662 65.7701C23.067 66.449 24.27 68.1002 23.7591 72.1012C23.7493 72.2265 23.6965 72.3484 23.6075 72.4407C23.5054 72.5461 23.3669 72.6088 23.2219 72.6121C21.3104 72.6549 19.4845 73.4756 18.2124 74.8697C18.1036 74.9916 17.9553 75.0509 17.807 75.0509ZM20.1997 66.3864C19.6559 66.3864 19.1286 66.5545 18.7463 66.8115C18.4299 67.0258 18.2387 67.2894 18.2717 67.4707C18.509 68.8549 18.4167 71.6563 18.3376 73.2613C19.5834 72.2759 21.1159 71.6728 22.721 71.5409C22.9649 69.0955 22.4969 67.3883 21.3928 66.7061C21.0237 66.4819 20.6084 66.3864 20.1997 66.3864Z" fill="#371A45"/>
</g>
<g id="Group_17">
<path id="Vector_15" d="M36.5499 81.6427C36.5466 81.6493 36.5466 81.6559 36.5433 81.6625C36.4675 81.9789 36.3852 82.292 36.2896 82.6018C36.2863 82.6083 36.2863 82.6116 36.2863 82.6149C36.2434 82.76 36.1973 82.9083 36.1479 83.0533C36.1446 83.0566 36.1446 83.0599 36.1446 83.0632C36.1413 83.0763 36.1347 83.0862 36.1314 83.1027C35.9864 83.5509 35.8183 83.9926 35.6304 84.4309C35.6106 84.4836 35.5909 84.5331 35.5678 84.5858C35.4788 84.7967 35.3832 85.011 35.2712 85.2252C35.2514 85.2713 35.225 85.3208 35.1987 85.3669C35.1723 85.4196 35.1427 85.4724 35.113 85.5251C35.0833 85.5778 35.0537 85.6306 35.024 85.6833C34.7505 86.1546 34.4209 86.6259 34.0353 87.0675C33.9924 87.1169 33.9463 87.1664 33.9034 87.2158C33.8573 87.2686 33.8112 87.318 33.7617 87.3674C33.7156 87.4136 33.6694 87.4597 33.6233 87.5026C33.5772 87.5487 33.5277 87.5948 33.4783 87.641C33.4256 87.6937 33.3695 87.7431 33.3135 87.7926C33.2674 87.8321 33.2212 87.8717 33.1751 87.9112C33.1223 87.9541 33.0696 88.0002 33.0169 88.0431C32.9642 88.0859 32.9114 88.1287 32.8554 88.1716C32.8027 88.2111 32.7466 88.254 32.6906 88.2935C32.6807 88.3001 32.6708 88.3067 32.6609 88.3133C32.6115 88.3496 32.5654 88.3825 32.5159 88.4155C32.4566 88.455 32.3973 88.4946 32.338 88.5308C32.3281 88.5374 32.3215 88.544 32.3116 88.5473C32.2556 88.5836 32.1962 88.6165 32.1369 88.6528C32.0183 88.722 31.8963 88.7879 31.7744 88.8505C31.7744 88.8505 31.7744 88.8472 31.7711 88.8505C31.7118 88.8802 31.6491 88.9131 31.5832 88.9428C31.5041 88.9824 31.425 89.0186 31.3426 89.0549C31.3426 89.0549 31.3426 89.0549 31.3393 89.0549C31.2965 89.0713 31.2569 89.0911 31.2174 89.1076C31.1778 89.1241 31.135 89.1406 31.0922 89.157L31.0889 89.1603C31.0724 89.1669 31.0592 89.1735 31.0427 89.1768C30.9669 89.2065 30.8911 89.2328 30.8153 89.2592C30.7362 89.2889 30.6571 89.3119 30.5747 89.3383C30.5615 89.3416 30.5484 89.3482 30.5319 89.3515C30.4396 89.3811 30.344 89.4042 30.2484 89.4306C30.2451 89.4306 30.2451 89.4339 30.2419 89.4339C30.1463 89.4569 30.0441 89.48 29.9419 89.5031C29.8826 89.5163 29.8266 89.5262 29.7673 89.536C29.7574 89.5393 29.7508 89.5393 29.7409 89.5426C29.6585 89.5558 29.5761 89.5723 29.4904 89.5822C29.3948 89.5954 29.3026 89.6085 29.207 89.6184C29.0883 89.6316 28.973 89.6415 28.851 89.6514H28.8412C28.7818 89.658 28.7192 89.6613 28.6533 89.6613C28.6203 89.6646 28.5841 89.6646 28.5478 89.6646C28.4588 89.6679 28.3666 89.6712 28.2743 89.6712C28.271 89.6712 28.271 89.6712 28.271 89.6712C28.1985 89.6712 28.126 89.6712 28.0502 89.6679C27.9843 89.6679 27.9216 89.6646 27.859 89.6613C27.7733 89.658 27.6876 89.6514 27.6019 89.6448C27.4503 89.6349 27.2954 89.6217 27.1372 89.602C27.0581 89.5921 26.9823 89.5822 26.9032 89.5723C26.8143 89.5591 26.7253 89.5459 26.6363 89.5294C26.5704 89.5196 26.5045 89.5097 26.4385 89.4965C26.4188 89.4932 26.399 89.4899 26.3792 89.4833C26.3693 89.48 26.3594 89.48 26.3496 89.4767C26.2078 89.4504 26.0661 89.4207 25.9211 89.3877C25.8387 89.368 25.753 89.3482 25.6673 89.3284C25.5289 89.2922 25.3872 89.2559 25.2422 89.2131C25.2125 89.2065 25.1829 89.1966 25.1532 89.19C25.1466 89.19 25.1433 89.1867 25.1367 89.1867C25.051 89.1636 24.9653 89.134 24.8797 89.1076C24.7907 89.0779 24.6984 89.0516 24.6094 89.0219C24.5171 88.9889 24.4281 88.9593 24.3359 88.9263C24.2633 88.8967 24.1875 88.867 24.115 88.8406C24.0425 88.811 23.97 88.7813 23.8975 88.7516C23.825 88.722 23.7558 88.6923 23.6833 88.6627C23.6141 88.633 23.5416 88.6033 23.4757 88.5704C23.4064 88.5407 23.3372 88.5078 23.2713 88.4781C23.2054 88.4484 23.1395 88.4155 23.0703 88.3858C23.0044 88.3529 22.9384 88.3232 22.8725 88.2902C22.744 88.2243 22.6188 88.1617 22.4935 88.0958C22.3716 88.0299 22.2496 87.964 22.131 87.898C22.0123 87.8321 21.897 87.7662 21.7849 87.7003C21.7289 87.6673 21.6729 87.6344 21.6168 87.5981C21.5081 87.5289 21.3993 87.463 21.2972 87.3938C21.1917 87.3246 21.0895 87.2587 20.9907 87.1895C20.9412 87.1532 20.8918 87.1202 20.8423 87.0873C20.6973 86.9851 20.5589 86.883 20.4271 86.7841C20.3809 86.7511 20.3381 86.7182 20.2952 86.6819C20.2096 86.616 20.1272 86.5468 20.0448 86.4842C19.8767 86.349 19.7218 86.2139 19.5768 86.0854C19.5076 86.0228 19.4416 85.9634 19.379 85.9041C19.0099 85.5581 18.71 85.2417 18.4793 84.9681C18.4397 84.922 18.4002 84.8758 18.3639 84.8297C18.3442 84.8066 18.3277 84.7868 18.3079 84.7638C18.2749 84.7209 18.2387 84.6781 18.209 84.6385C18.1695 84.5891 18.1365 84.543 18.1003 84.4968C18.0838 84.477 18.0706 84.454 18.0541 84.4342C18.0245 84.3947 17.9981 84.3551 17.9717 84.3221C17.9618 84.3057 17.9487 84.2892 17.9388 84.2727C17.8531 84.1508 17.8135 84.0783 17.8135 84.0783C19.2439 81.1253 20.6743 78.1756 22.1013 75.2225L22.1046 75.2192C24.1084 74.7513 26.1156 74.28 28.1227 73.812C29.2795 72.7705 30.9669 71.528 33.2542 70.6348C34.4802 70.157 35.693 69.8472 36.8696 69.6692C37.2519 73.4956 37.509 77.7076 36.5499 81.6427Z" fill="#C97043"/>
</g>
<g id="Group_18">
<path id="Vector_16" d="M36.5434 81.6626C36.4676 81.9757 36.3819 82.2921 36.2896 82.6019C36.2435 82.7568 36.1974 82.9117 36.1446 83.0633C36.1413 83.0765 36.1347 83.0864 36.1314 83.1028C35.9864 83.5511 35.8183 83.9927 35.6305 84.431C35.6107 84.4838 35.5909 84.5332 35.5679 84.5859C35.2284 85.4066 34.7242 86.2833 34.0353 87.0709C33.9925 87.1204 33.9464 87.1698 33.9035 87.2192C33.8574 87.272 33.8112 87.3214 33.7618 87.3708C33.7157 87.417 33.6695 87.4631 33.6234 87.506C33.5772 87.5521 33.5278 87.5983 33.4784 87.6444C33.4256 87.6971 33.3696 87.7466 33.3136 87.796C33.2674 87.8356 33.2213 87.8751 33.1751 87.9146C33.1224 87.9575 33.0697 88.0036 33.0169 88.0465C32.9642 88.0893 32.9115 88.1322 32.8555 88.175C32.7928 88.2212 32.7269 88.2706 32.661 88.3167C32.6116 88.353 32.5654 88.3859 32.516 88.4189C32.4567 88.4585 32.3973 88.498 32.338 88.5343C32.3281 88.5408 32.3215 88.5474 32.3117 88.5507C32.081 88.6957 31.8371 88.8309 31.5833 88.9462C31.5042 88.9858 31.4251 89.022 31.3427 89.0583C31.3427 89.0583 31.3427 89.0583 31.3394 89.0583C31.2966 89.0748 31.257 89.0945 31.2175 89.111C31.1779 89.1275 31.1351 89.144 31.0922 89.1604L31.0889 89.1637C31.0724 89.1703 31.0593 89.1769 31.0428 89.1802C30.967 89.2099 30.8912 89.2363 30.8154 89.2626C30.7363 89.2923 30.6572 89.3153 30.5748 89.3417C30.5616 89.345 30.5484 89.3516 30.5319 89.3549C30.4397 89.3846 30.3474 89.4076 30.2485 89.434C30.2452 89.434 30.2452 89.4373 30.2419 89.4373C30.1463 89.4604 30.0442 89.4834 29.942 89.5065C29.8827 89.5197 29.8266 89.5296 29.7673 89.5395C29.7574 89.5428 29.7508 89.5428 29.741 89.5461C29.6586 89.5592 29.5762 89.5757 29.4905 89.5856C29.3949 89.5988 29.3026 89.612 29.207 89.6219C29.0884 89.635 28.9731 89.6449 28.8511 89.6548C28.7522 89.6614 28.6501 89.668 28.5479 89.668C28.4556 89.6713 28.3633 89.6746 28.271 89.6746C28.0535 89.6746 27.8294 89.668 27.5987 89.6515C27.3713 89.635 27.1373 89.612 26.9 89.579C26.811 89.5658 26.722 89.5526 26.6331 89.5362C26.5671 89.5263 26.5012 89.5164 26.4353 89.5032C26.4155 89.4999 26.3958 89.4966 26.376 89.49C26.2244 89.4637 26.0728 89.4307 25.9146 89.3945C25.8322 89.3747 25.7465 89.3549 25.6608 89.3351C25.318 89.2494 24.9687 89.144 24.6062 89.0253C24.5139 88.9924 24.4249 88.9627 24.3326 88.9297C24.2601 88.9001 24.1843 88.8704 24.1118 88.8441C24.0393 88.8144 23.9668 88.7847 23.8943 88.7551C23.8218 88.7254 23.7526 88.6957 23.6801 88.6661C23.6108 88.6364 23.5383 88.6068 23.4724 88.5738C23.4032 88.5441 23.334 88.5112 23.2681 88.4815C23.2022 88.4519 23.1363 88.4189 23.067 88.3892C23.0011 88.3563 22.9352 88.3266 22.8693 88.2937C22.7408 88.2277 22.6155 88.1651 22.4903 88.0992C22.3683 88.0333 22.2464 87.9674 22.1278 87.9015C22.0091 87.8356 21.8938 87.7696 21.7817 87.7037C21.7257 87.6708 21.6696 87.6378 21.6136 87.6016C21.5049 87.5323 21.3961 87.4664 21.2939 87.3972C21.1885 87.328 21.0863 87.2621 20.9874 87.1929C20.938 87.1566 20.8885 87.1237 20.8391 87.0907C20.6941 86.9885 20.5557 86.8864 20.4238 86.7875C20.3777 86.7545 20.3349 86.7216 20.292 86.6853C20.2063 86.6194 20.1239 86.5502 20.0415 86.4876C19.8735 86.3525 19.7186 86.2173 19.5735 86.0888C19.5043 86.0262 19.4417 85.9669 19.3758 85.9075C19.0067 85.5615 18.7068 85.2451 18.476 84.9715C18.4332 84.9254 18.3969 84.8793 18.3607 84.8331C18.3409 84.81 18.3244 84.7903 18.3047 84.7672C18.2717 84.7244 18.2355 84.6815 18.2058 84.642C18.1662 84.5925 18.1333 84.5464 18.097 84.5002C18.0806 84.4805 18.0674 84.4574 18.0509 84.4376C18.0212 84.3981 17.9949 84.3585 17.9685 84.3256C17.9586 84.3091 17.9454 84.2926 17.9355 84.2761C17.8499 84.1542 17.8103 84.0817 17.8103 84.0817C19.2407 81.1287 20.671 78.179 22.0981 75.226L22.1014 75.2227C22.9352 74.9491 23.947 74.6855 25.1104 74.5174C26.0135 74.3888 26.8407 74.3427 27.5658 74.3427C28.6929 73.2353 30.5649 71.6896 33.2509 70.6383C34.5923 70.1109 35.8315 69.8275 36.8664 69.6726C36.8829 69.8275 36.8961 69.9857 36.9125 70.1406C37.2685 73.845 37.4695 77.8824 36.5434 81.6626Z" fill="#C97043"/>
</g>
<g id="Group_19">
<path id="Vector_17" d="M39.8984 70.6215C39.7172 75.5256 36.7971 80.7296 36.5499 81.6426C36.5466 81.6491 36.5466 81.6557 36.5433 81.6623C36.461 81.9655 36.3753 82.2786 36.2896 82.6016C36.2863 82.6082 36.2863 82.6115 36.2863 82.6148C36.2566 82.7236 36.2105 82.8752 36.1479 83.0531C36.1446 83.0564 36.1446 83.0597 36.1446 83.063C36.1413 83.0762 36.1347 83.0861 36.1314 83.1026C36.0127 83.442 35.8414 83.8936 35.6304 84.4308C35.6106 84.4835 35.5909 84.5329 35.5678 84.5857C35.4788 84.7966 35.3832 85.0108 35.2712 85.225C35.2514 85.2712 35.225 85.3206 35.1987 85.3668C35.1723 85.4195 35.1427 85.4722 35.113 85.525C35.0833 85.5777 35.0537 85.6304 35.024 85.6832C34.7505 86.1544 34.4209 86.6257 34.0353 87.0674C33.9924 87.1168 33.9463 87.1662 33.9034 87.2157C33.8573 87.2684 33.8112 87.3179 33.7617 87.3673C33.7156 87.4134 33.6694 87.4596 33.6233 87.5024C33.5772 87.5486 33.5277 87.5947 33.4783 87.6408C33.4256 87.6936 33.3695 87.743 33.3135 87.7924C33.2674 87.832 33.2212 87.8715 33.1751 87.9111C33.1223 87.9539 33.0696 88.0001 33.0169 88.0429C32.9642 88.0858 32.9114 88.1286 32.8554 88.1715C32.8027 88.211 32.7466 88.2538 32.6906 88.2934C32.6807 88.3 32.6708 88.3066 32.6609 88.3132C32.6115 88.3494 32.5654 88.3824 32.5159 88.4153C32.4566 88.4549 32.3973 88.4944 32.338 88.5307C32.3281 88.5373 32.3215 88.5439 32.3116 88.5472C32.2556 88.5834 32.1962 88.6164 32.1369 88.6526C32.0183 88.7219 31.8963 88.7878 31.7744 88.8504C31.7744 88.8504 31.7744 88.8471 31.7711 88.8504C31.7118 88.88 31.6491 88.913 31.5832 88.9427C31.5041 88.9789 31.425 89.0152 31.3426 89.0547C31.3426 89.0547 31.3426 89.0547 31.3393 89.0547C31.2965 89.0712 31.2569 89.091 31.2174 89.1075C31.1778 89.1239 31.135 89.1404 31.0922 89.1569L31.0889 89.1602C31.0724 89.1668 31.0592 89.1734 31.0427 89.1767C30.9669 89.2063 30.8911 89.2327 30.8153 89.2591C30.7362 89.2887 30.6571 89.3118 30.5747 89.3382C30.5615 89.3415 30.5484 89.348 30.5319 89.3513C30.4396 89.381 30.3473 89.4041 30.2484 89.4304C30.2451 89.4304 30.2451 89.4337 30.2419 89.4337C30.1463 89.4568 30.0441 89.4799 29.9419 89.5029C29.8826 89.5161 29.8266 89.526 29.7673 89.5359C29.7574 89.5392 29.7508 89.5392 29.7409 89.5425C29.6585 89.5557 29.5761 89.5722 29.4904 89.582C29.3948 89.5952 29.3026 89.6084 29.207 89.6183C29.0883 89.6315 28.973 89.6414 28.851 89.6513H28.8412C28.7818 89.6578 28.7192 89.6611 28.6533 89.6611C28.6203 89.6644 28.5841 89.6644 28.5478 89.6644C28.4588 89.6677 28.3666 89.671 28.2743 89.671C28.271 89.671 28.271 89.671 28.271 89.671C28.1985 89.671 28.126 89.671 28.0502 89.6677C27.9843 89.6677 27.9216 89.6644 27.859 89.6611C27.7733 89.6578 27.6876 89.6513 27.6019 89.6447C27.5261 89.6414 27.4503 89.6348 27.3712 89.6282C27.3449 89.6249 27.3185 89.6216 27.2921 89.6183C27.2394 89.6117 27.19 89.6084 27.1372 89.6018C27.0581 89.5919 26.9823 89.582 26.9032 89.5722C26.8143 89.559 26.7253 89.5458 26.6363 89.5293C26.5704 89.5194 26.5045 89.5095 26.4385 89.4964C26.4188 89.4931 26.399 89.4898 26.3792 89.4832C26.3693 89.4799 26.3594 89.4799 26.3496 89.4766C26.2902 89.4667 26.2342 89.4568 26.1716 89.4436C26.0892 89.4271 26.0035 89.4074 25.9178 89.3876C25.8354 89.3678 25.7497 89.348 25.664 89.3283C25.5783 89.3085 25.4927 89.2854 25.407 89.2624C25.3509 89.2459 25.2982 89.2327 25.2422 89.2129C25.2125 89.2063 25.1829 89.1964 25.1532 89.1899C25.1466 89.1899 25.1433 89.1866 25.1367 89.1866C25.051 89.1635 24.9653 89.1338 24.8797 89.1075C24.7907 89.0778 24.6984 89.0514 24.6094 89.0218C24.5171 88.9921 24.4281 88.9624 24.3359 88.9295C24.2633 88.8998 24.1875 88.8702 24.115 88.8405C24.0425 88.8108 23.97 88.7812 23.8975 88.7515C23.825 88.7219 23.7558 88.6922 23.6833 88.6625C23.6141 88.6329 23.5416 88.6032 23.4757 88.5702C23.4064 88.5406 23.3372 88.5076 23.2713 88.478C23.2054 88.4483 23.1395 88.4153 23.0703 88.3857C23.0044 88.3527 22.9384 88.3231 22.8725 88.2901C22.744 88.2242 22.6188 88.1616 22.4935 88.0957C22.3716 88.0297 22.2496 87.9638 22.131 87.8979C22.0123 87.832 21.897 87.7661 21.7849 87.7002C21.7289 87.6672 21.6729 87.6343 21.6168 87.598C21.5081 87.5288 21.3993 87.4629 21.2972 87.3937C21.1917 87.3244 21.0895 87.2585 20.9907 87.1893C20.9412 87.1531 20.8918 87.1201 20.8423 87.0872C20.6973 86.985 20.5589 86.8828 20.4271 86.7839C20.3809 86.751 20.3381 86.718 20.2952 86.6818C20.2096 86.6159 20.1272 86.5466 20.0448 86.484C19.8767 86.3489 19.7218 86.2138 19.5768 86.0852C19.5076 86.0226 19.4416 85.9633 19.379 85.904C19.0099 85.5579 18.71 85.2415 18.4793 84.968C18.4397 84.9218 18.4002 84.8757 18.3639 84.8296C18.3442 84.8065 18.3277 84.7867 18.3079 84.7636C18.2749 84.7208 18.2387 84.678 18.209 84.6384C18.1695 84.589 18.1365 84.5428 18.1003 84.4967C18.0838 84.4769 18.0706 84.4538 18.0541 84.4341C18.0245 84.3945 17.9981 84.355 17.9717 84.322C17.9618 84.3055 17.9487 84.289 17.9388 84.2726C17.8531 84.1506 17.8135 84.0781 17.8135 84.0781C19.2439 81.1251 20.6743 78.1754 22.1013 75.2224L22.1046 75.2191C22.8626 74.9357 23.8843 74.6391 25.1136 74.5138C26.0595 74.4182 26.8934 74.4446 27.569 74.5171C27.7239 74.382 31.0955 71.4784 33.2542 70.6347C33.7123 70.4567 34.1935 70.3018 34.1935 70.3018C35.0998 70.0085 35.9963 69.8042 36.8696 69.6723H36.8729C37.921 69.5109 38.9361 69.4548 39.8984 69.4647C39.9182 69.9854 39.9083 70.404 39.8984 70.6215Z" fill="white"/>
</g>
<g id="Group_20">
<path id="Vector_18" d="M37.4432 73.6208C37.3773 74.514 37.2982 75.4236 37.1993 76.3563C36.9653 78.5546 36.6522 80.6408 36.2897 82.6018C34.8197 85.4395 32.7072 87.6674 30.0112 87.5949C25.9113 87.4894 25.4169 85.5779 24.0723 85.9833C24.8632 83.2939 25.5883 78.9962 26.2409 77.0649C25.7729 78.6963 26.3332 80.3772 27.5691 81.2077C28.4326 81.7877 29.6124 81.9427 30.5682 81.5603C31.0692 81.3593 31.3823 81.0627 32.5094 79.6191C33.5674 78.2679 34.2232 77.3385 34.6253 76.798C35.2251 75.9905 36.138 74.8666 37.4432 73.6208Z" fill="#E5E5E5"/>
</g>
<g id="Group_21">
<path id="Vector_19" d="M28.2776 90.2051C27.9678 90.2051 27.6481 90.1919 27.3252 90.1623C27.1571 90.1458 26.9923 90.126 26.8275 90.103C26.5803 90.07 26.3232 90.0239 26.0629 89.9711C25.7794 89.9118 25.5191 89.8492 25.2653 89.78C24.9028 89.6811 24.5304 89.5624 24.1546 89.4273L23.9206 89.3383C23.5482 89.1867 23.1857 89.0285 22.8363 88.8637L22.8034 88.8473C22.7473 88.8209 22.688 88.7912 22.632 88.7649C22.4936 88.6957 22.365 88.6297 22.2398 88.5638C22.1113 88.4946 21.9827 88.4287 21.8608 88.3595L21.8015 88.3265C21.6993 88.2705 21.6004 88.2145 21.5048 88.1552C21.4521 88.1255 21.3961 88.0892 21.3433 88.0563C21.2181 87.9772 21.1093 87.9113 21.0039 87.8421L20.9479 87.8058C20.8589 87.7465 20.7699 87.6905 20.6842 87.6311C20.6282 87.5916 20.582 87.5586 20.5359 87.529C20.3777 87.4169 20.2327 87.3114 20.0976 87.2093C20.058 87.1829 20.0152 87.1499 19.9756 87.117C19.9723 87.117 19.9591 87.1038 19.9591 87.1038C19.8734 87.0346 19.7878 86.9687 19.7054 86.9028C18.0542 85.5614 17.3687 84.3947 17.339 84.3453C17.2467 84.1871 17.2401 83.9959 17.3192 83.8311L18.7858 80.8023C19.7251 78.8611 20.6677 76.9199 21.607 74.9787C21.6334 74.9227 21.6696 74.8732 21.7125 74.8304C21.7685 74.7744 21.8377 74.7282 21.9102 74.7019C22.922 74.3261 23.98 74.079 25.0511 73.9669C25.8717 73.8812 26.7023 73.8713 27.5229 73.9438C29.0785 72.2992 30.9769 70.9842 33.0367 70.1273C35.7129 69.0167 38.0034 68.8914 39.8952 68.9145C42.4758 68.9475 45.2508 69.5011 47.7029 70.4767C47.8841 70.5492 48.0126 70.7107 48.0423 70.9018C48.072 71.093 47.9962 71.2875 47.8446 71.4094C42.3308 75.8916 38.3857 80.3607 36.115 84.6946L36.0326 84.8561C35.413 86.0492 34.2594 88.2705 31.8239 89.4438C31.7382 89.4834 31.6558 89.5229 31.5668 89.5624C31.5569 89.5657 31.5437 89.5723 31.5338 89.5756C31.4613 89.6053 31.3888 89.635 31.313 89.6646C31.3064 89.6679 31.2965 89.6712 31.2867 89.6745C30.8945 89.8261 30.4792 89.9481 30.054 90.037C29.9914 90.0502 29.9288 90.0634 29.8629 90.0733C29.6651 90.1095 29.4641 90.1392 29.2697 90.1623C29.1411 90.1755 29.0192 90.1853 28.8906 90.1952C28.6962 90.1985 28.4886 90.2051 28.2776 90.2051ZM18.4431 84.019C18.71 84.3947 19.3296 85.1758 20.3909 86.0393C20.4667 86.1019 20.5491 86.1678 20.6348 86.2337C20.6776 86.2667 20.7172 86.2964 20.7534 86.3227C20.8885 86.4249 21.0204 86.5205 21.1621 86.6193C21.2049 86.649 21.261 86.6852 21.3137 86.7248C21.3829 86.7709 21.4653 86.827 21.551 86.883L21.6004 86.916C21.6993 86.9786 21.8015 87.0445 21.9102 87.1104C21.963 87.1434 22.0124 87.173 22.0651 87.2027C22.1574 87.2587 22.2497 87.3114 22.3453 87.3642L22.4046 87.3971C22.5166 87.4597 22.6353 87.5224 22.7539 87.585C22.8726 87.6476 22.9978 87.7102 23.1231 87.7729L23.3109 87.8618C23.6405 88.02 23.9833 88.1683 24.326 88.3068L24.5369 88.3892C24.8764 88.5111 25.2225 88.6199 25.5586 88.7121C25.7893 88.7748 26.0299 88.8341 26.2936 88.8868C26.5276 88.9362 26.7616 88.9758 26.989 89.0088C27.1406 89.0318 27.2922 89.0483 27.4372 89.0615C27.9184 89.1043 28.3864 89.1109 28.8247 89.0813C28.9368 89.0714 29.0488 89.0615 29.1609 89.0516C29.3257 89.0318 29.5004 89.0088 29.6783 88.9758C29.7344 88.9659 29.7871 88.956 29.8398 88.9461C30.1958 88.8703 30.5451 88.7682 30.8747 88.6429C30.8846 88.6363 30.8978 88.633 30.9076 88.6297C30.9835 88.6001 31.056 88.5704 31.1318 88.5408C31.1384 88.5375 31.1449 88.5342 31.1515 88.5309C31.2207 88.4979 31.29 88.4683 31.3559 88.4353C33.4619 87.4202 34.5033 85.4098 35.0636 84.3321L35.1493 84.1673C37.3838 79.8993 41.1739 75.5225 46.4175 71.149C44.3181 70.424 42.0308 70.0186 39.8853 69.9922C38.7186 69.979 36.2896 69.9461 33.4619 71.1227C31.4646 71.9499 29.6289 73.2451 28.1491 74.8666C28.0304 74.9952 27.8591 75.0611 27.6844 75.0413C26.8473 74.9523 26.0003 74.9523 25.1664 75.038C24.2568 75.1336 23.3604 75.3346 22.4969 75.6379C21.5905 77.5131 20.6809 79.3884 19.7746 81.2637L18.4431 84.019Z" fill="#371A45"/>
</g>
<g id="Group_22">
<path id="Vector_20" d="M23.156 86.2139C25.2456 86.1183 26.0761 83.8409 24.5106 83.0862C24.5106 83.0862 20.2195 83.7717 20.1305 84.7473C20.0415 85.7228 23.156 86.2139 23.156 86.2139Z" fill="white"/>
</g>
<g id="Group_23">
<path id="Vector_21" d="M23.156 86.2139C23.5482 86.148 23.9173 86.0062 24.2205 85.7821C24.5205 85.5613 24.7544 85.268 24.8764 84.9516C24.9983 84.6352 25.0016 84.2957 24.8797 84.0551C24.7643 83.808 24.5468 83.6596 24.2766 83.5805C23.9832 83.4916 23.8152 83.1851 23.9041 82.8884C23.9931 82.5951 24.2996 82.427 24.5963 82.516C24.6424 82.5292 24.6819 82.549 24.7215 82.572L24.7545 82.5918C24.972 82.7237 25.1796 82.895 25.3444 83.1093C25.5092 83.3235 25.6212 83.5773 25.6707 83.831C25.7728 84.3518 25.6146 84.8461 25.3576 85.2152C25.1005 85.591 24.7413 85.8612 24.3557 86.0227C23.9668 86.1908 23.5515 86.2402 23.156 86.2139Z" fill="#371A45"/>
</g>
<g id="Group_24">
<path id="Vector_22" d="M24.3392 88.9097C13.9773 84.8163 15.6779 76.455 18.1399 73.357C19.679 71.4224 21.0599 70.6116 25.1137 71.8212C26.6067 72.2661 27.9349 73.2977 27.3548 76.689C27.4867 82.9542 26.2343 84.2429 21.2676 84.7405L22.0421 87.1201L24.3392 88.9097Z" fill="white"/>
</g>
<g id="Group_25" opacity="0.35">
<path id="Vector_23" d="M22.7506 71.3038C21.2576 71.462 20.348 72.2497 19.3856 73.4658C17.0127 76.4518 15.3187 84.1507 23.6932 88.6461C14.0531 84.4638 15.7306 76.3925 18.1398 73.3636C19.3296 71.8575 20.4304 71.0335 22.7506 71.3038Z" fill="white"/>
</g>
<g id="Group_26">
<path id="Vector_24" d="M23.5087 82.7434C24.4908 83.1422 25.4729 82.3808 25.997 80.2781C26.4287 78.5413 25.852 77.1439 26.0728 76.5803C26.2969 76.0167 26.4518 74.0129 25.4433 73.1659C24.7611 72.5924 23.6702 72.3551 23.4889 72.5265C23.3076 72.6979 24.1415 74.8599 23.9305 76.544C23.7262 78.2018 21.6795 82.0051 23.5087 82.7434Z" fill="#E5E5E5"/>
</g>
<g id="Group_27">
<path id="Vector_25" d="M24.1414 89.4106C22.8132 88.8866 21.5246 88.2307 20.3414 87.3969C19.1615 86.5598 18.0904 85.5282 17.283 84.289C16.4722 83.0564 15.9515 81.626 15.7933 80.1561C15.6285 78.6862 15.7999 77.1932 16.2613 75.7991C16.492 75.1004 16.7919 74.4248 17.1808 73.7887C17.2764 73.6305 17.3818 73.4723 17.4873 73.3207C17.5961 73.1691 17.7147 73.0142 17.8268 72.879C18.0542 72.5989 18.3014 72.3188 18.5749 72.0551C18.8452 71.7914 19.155 71.5443 19.4944 71.3366C19.8372 71.1323 20.2096 70.9708 20.5952 70.8686C21.3697 70.661 22.1475 70.6709 22.8792 70.7533C23.6141 70.8423 24.3194 71.0038 25.0115 71.1949C25.697 71.3696 26.5177 71.6728 27.1076 72.3056C27.4075 72.6121 27.6317 72.9878 27.7866 73.3734C27.9382 73.759 28.0271 74.1578 28.0667 74.5434C28.1491 75.3212 28.0799 76.0693 27.9579 76.7911L27.9678 76.6758C27.9876 77.6777 27.9678 78.6829 27.8591 79.7046C27.7964 80.2154 27.7108 80.7296 27.5723 81.2404C27.4339 81.7512 27.2395 82.2687 26.933 82.74C26.7846 82.9773 26.6034 83.1981 26.4089 83.3991C26.2046 83.5936 25.9937 83.7781 25.7531 83.9199C25.2884 84.2231 24.7742 84.3977 24.2733 84.5263C23.2615 84.7636 22.2596 84.7899 21.2609 84.7372C22.2233 84.4768 23.1923 84.2494 24.0623 83.8803C24.939 83.5178 25.6542 82.9773 26.0431 82.2126C26.4452 81.4546 26.6067 80.5252 26.6825 79.5859C26.7616 78.64 26.7517 77.6711 26.7352 76.6988C26.7352 76.6626 26.7385 76.623 26.7418 76.5868V76.5802C26.8473 75.9309 26.9066 75.2751 26.8506 74.6654C26.7912 74.0556 26.6067 73.5019 26.2408 73.1098C26.0596 72.912 25.8355 72.7472 25.5718 72.6154C25.44 72.5495 25.3015 72.4902 25.1565 72.4374C25.084 72.4111 25.0115 72.388 24.9357 72.3616L24.6918 72.2891C24.0426 72.098 23.3867 71.9431 22.7374 71.8574C22.0915 71.775 21.4488 71.7684 20.8687 71.92C20.2887 72.0683 19.7811 72.388 19.3263 72.8329C19.0989 73.0537 18.8814 73.2976 18.6705 73.558C18.4563 73.815 18.2783 74.0655 18.1069 74.349C17.7674 74.9027 17.4972 75.5091 17.2896 76.132C16.8743 77.3844 16.7194 78.7224 16.8677 80.0276C17.0094 81.3327 17.4642 82.5917 18.186 83.6891C18.9012 84.7932 19.8701 85.7325 20.961 86.507C22.0552 87.2815 23.2681 87.9011 24.5336 88.4021C24.8105 88.5108 24.9456 88.8239 24.8368 89.1008C24.7281 89.3842 24.4183 89.5194 24.1414 89.4106Z" fill="#371A45"/>
</g>
</g>
<g id="Group_28">
<g id="Group_29">
<path id="Vector_26" d="M88.9229 84.9052C88.8471 85.3535 88.712 85.7885 88.712 85.7885C88.6197 86.0818 88.5076 86.3752 88.3725 86.6685C86.9125 88.8371 84.9548 89.0546 82.5687 87.5979C75.5322 83.577 68.5057 80.7888 61.4956 80.8976C61.4659 80.8976 61.4396 80.9009 61.4099 80.9009L61.4231 80.5812L61.601 76.7944C59.6994 74.8103 59.205 72.3055 60.1971 70.7631C60.3981 70.4533 60.8793 69.837 61.9438 69.4382C64.8968 69.4547 68.7331 69.7711 73.0505 70.9279C76.1782 71.765 78.828 72.8493 80.9603 73.8941C81.2899 74.0754 86.316 76.8801 88.0462 80.4856C88.8669 82.1862 89.035 84.2494 88.9229 84.9052Z" fill="white"/>
</g>
<g id="Group_30">
<path id="Vector_27" d="M88.923 84.9054C88.8274 85.4953 88.6429 86.0819 88.3726 86.6653C86.9126 88.8339 84.9549 89.0514 82.5688 87.5947C75.5323 83.5739 68.5058 80.7856 61.4957 80.8944C61.4693 80.7889 61.4462 80.6835 61.4265 80.578L61.6044 76.7912C61.9076 75.9804 62.4317 75.2817 63.2128 75.0049C64.0828 75.5091 64.6069 76.5209 65.2858 77.3053C65.968 78.093 66.8546 78.6764 67.7708 79.174C72.7738 81.8864 77.0978 82.3182 81.3526 85.0372C81.3526 85.0372 83.3828 86.3357 85.7854 86.5005C86.1315 86.5236 86.6324 86.5302 87.196 86.3225C88.1353 85.9831 88.6824 85.2745 88.923 84.9054Z" fill="#E5E5E5"/>
</g>
<g id="Group_31">
<path id="Vector_28" d="M85.347 89.0316C84.4835 89.0316 83.475 88.7449 82.305 88.0297C74.1975 83.3992 67.5532 81.2899 61.4231 81.4052L61.4033 80.3869C67.7279 80.2682 74.5336 82.417 82.8225 87.1531C85.0438 88.5109 86.662 88.2736 87.9276 86.4181C88.8801 84.3352 88.656 82.1732 87.2619 79.9815C83.564 74.1776 72.9187 69.9558 61.9471 69.9459V68.9275C73.2417 68.9407 84.2495 73.3603 88.1221 79.4377C89.7007 81.9161 89.9512 84.4934 88.8372 86.8894C88.8273 86.9125 88.8142 86.9355 88.7977 86.9586C88.0792 88.0165 86.9718 89.0316 85.347 89.0316Z" fill="#371A45"/>
</g>
</g>
<g id="Group_32">
<path id="Vector_29" d="M61.8054 71.8212C58.9447 73.4493 54.7756 74.471 50.1384 74.471C45.5013 74.471 41.3322 73.446 38.4714 71.8212C40.1061 69 44.2423 63.0676 50.1384 63.0676C56.0345 63.0676 60.1707 68.9967 61.8054 71.8212Z" fill="#FF9343"/>
</g>
<g id="Group_33">
<g id="Group_34">
<g id="Group_35">
<path id="Vector_30" d="M49.3507 102.465C48.1016 107.745 49.4364 116.604 48.7146 120.256C48.2038 122.945 46.3483 124.152 43.4348 124.152C41.5694 124.152 39.8754 124.152 35.8809 124.152C32.5324 124.152 32.4929 121.268 32.7302 120.193C33.0795 118.611 34.6417 117.629 35.5876 117.356C33.6596 108.47 32.6445 95.7322 32.8983 93.4021" fill="#FFAD40"/>
</g>
<g id="Group_36">
<path id="Vector_31" d="M48.7146 120.256C48.2038 122.945 46.3483 124.148 43.4348 124.148H35.8809C32.5324 124.148 32.4929 121.264 32.7302 120.19C33.0795 118.608 34.6417 117.623 35.5876 117.356C34.2067 110.985 33.2938 102.634 32.9774 97.5581C32.8554 95.5542 32.8258 94.0613 32.895 93.4021L49.3507 102.462C48.1016 107.745 49.4364 116.604 48.7146 120.256Z" fill="white"/>
</g>
<g id="Group_37">
<path id="Vector_32" d="M48.7146 120.256C48.2038 122.945 46.3483 124.148 43.4348 124.148H35.8809C32.5324 124.148 32.4929 121.264 32.7302 120.19C32.7302 120.19 33.4388 121.884 36.7906 121.884H41.3882C42.6801 121.884 44.9113 121.63 45.9 120.055C46.8657 118.522 47.1327 111.344 45.2145 109.11C43.1843 106.743 36.1248 104.736 33.6761 99.028C33.5311 98.7379 33.2806 98.2139 32.9774 97.5581C32.8554 95.5542 32.8258 94.0613 32.895 93.4021L49.3507 102.462C48.1016 107.745 49.4364 116.604 48.7146 120.256Z" fill="#E5E5E5"/>
</g>
<g id="Group_38">
<path id="Vector_33" d="M43.4349 124.715H35.881C34.5363 124.715 33.5212 124.296 32.8555 123.469C32.0282 122.441 31.9755 120.994 32.1798 120.068C32.5259 118.506 33.8706 117.457 34.9351 116.993C33.0961 108.243 32.0645 95.8637 32.338 93.3391L33.4619 93.4611C33.2312 95.6099 34.1935 108.246 36.1446 117.233L36.2567 117.751L35.7491 117.896C34.9516 118.123 33.5805 118.98 33.2872 120.312C33.1653 120.862 33.1257 121.992 33.742 122.76C34.1804 123.307 34.9021 123.584 35.8876 123.584H43.4414C46.1835 123.584 47.7292 122.46 48.1676 120.15C48.4708 118.621 48.395 116.027 48.3159 113.285C48.2071 109.587 48.0885 105.395 48.8102 102.333L49.9077 102.594C49.2189 105.507 49.3376 109.623 49.443 113.252C49.5287 116.185 49.6012 118.716 49.2749 120.364C48.8926 122.348 47.5743 124.715 43.4349 124.715Z" fill="#371A45"/>
</g>
</g>
<g id="Group_39">
<g id="Group_40">
<path id="Vector_34" d="M50.9261 102.465C52.1752 107.745 50.8404 116.604 51.5622 120.256C52.073 122.945 53.9285 124.152 56.842 124.152C58.7074 124.152 60.4014 124.152 64.3959 124.152C67.7444 124.152 67.7839 121.268 67.5466 120.193C67.1973 118.611 65.6351 117.629 64.6892 117.356C66.6172 108.47 67.6323 95.7322 67.3785 93.4021" fill="#FFAD40"/>
</g>
<g id="Group_41">
<path id="Vector_35" d="M51.5622 120.256C52.073 122.945 53.9285 124.148 56.842 124.148H64.3959C67.7444 124.148 67.7839 121.264 67.5466 120.19C67.1973 118.608 65.6351 117.623 64.6892 117.356C66.0701 110.985 66.983 102.634 67.2994 97.5581C67.4214 95.5542 67.451 94.0613 67.3818 93.4021L50.9261 102.462C52.1719 107.745 50.8404 116.604 51.5622 120.256Z" fill="white"/>
</g>
<g id="Group_42">
<path id="Vector_36" d="M51.5622 120.256C52.073 122.945 53.9285 124.148 56.842 124.148H64.3959C67.7444 124.148 67.7839 121.264 67.5466 120.19C67.5466 120.19 66.838 121.884 63.4862 121.884H58.8886C57.5967 121.884 55.3655 121.63 54.3768 120.055C53.4111 118.522 53.1441 111.344 55.0623 109.11C57.0925 106.743 64.152 104.736 66.6007 99.028C66.7457 98.7379 66.9962 98.2139 67.2994 97.5581C67.4214 95.5542 67.451 94.0613 67.3818 93.4021L50.9261 102.462C52.1719 107.745 50.8404 116.604 51.5622 120.256Z" fill="#E5E5E5"/>
</g>
<g id="Group_43">
<path id="Vector_37" d="M64.3958 124.715H56.842C52.7025 124.715 51.3842 122.348 51.0085 120.361C50.6822 118.716 50.758 116.185 50.8437 113.252C50.9491 109.623 51.0678 105.51 50.379 102.594L51.4765 102.333C52.1982 105.392 52.0796 109.584 51.9708 113.282C51.8917 116.027 51.8159 118.621 52.1158 120.144C52.5542 122.46 54.0999 123.584 56.842 123.584H64.3958C65.3813 123.584 66.103 123.307 66.5414 122.76C67.1577 121.992 67.1181 120.859 66.9962 120.312C66.7029 118.983 65.3318 118.123 64.5343 117.896L64.0267 117.751L64.1388 117.233C66.0899 108.246 67.0522 95.6099 66.8215 93.4611L67.9454 93.3391C68.2189 95.8637 67.1873 108.243 65.3483 116.993C66.4095 117.457 67.7575 118.506 68.1036 120.068C68.3079 120.994 68.2519 122.441 67.4279 123.469C66.7589 124.296 65.7405 124.715 64.3958 124.715Z" fill="#371A45"/>
</g>
</g>
<g id="Group_44">
<path id="Vector_38" d="M67.2302 95.9759C66.7754 97.6634 66.0042 99.2255 64.8342 100.587L58.9644 104.739C57.221 105.89 54.2284 107.037 50.1417 107.037C46.0549 107.037 43.0591 105.89 41.3189 104.739L35.4459 100.587C34.2759 99.2255 33.5047 97.6601 33.0499 95.9759C31.3558 89.7272 33.9496 81.7943 36.3588 76.2145C36.8235 75.1401 37.2783 74.1514 37.6969 73.2813C37.6969 73.2813 42.4032 63.071 50.1417 63.071C57.8801 63.071 62.5865 73.2813 62.5865 73.2813C63.005 74.1514 63.4632 75.1401 63.9246 76.2145C66.3305 81.7943 68.9275 89.7272 67.2302 95.9759Z" fill="white"/>
</g>
<g id="Group_45">
<path id="Vector_39" d="M61.8054 70.7039C58.9447 73.2647 54.7756 74.8796 50.1384 74.8796C45.5013 74.8796 41.3322 73.268 38.4714 70.7039C40.1061 66.2579 44.2423 56.9177 50.1384 56.9177C56.0345 56.9177 60.1707 66.2546 61.8054 70.7039Z" fill="#E5E5E5"/>
</g>
<g id="Group_46">
<path id="Vector_40" d="M67.2302 95.9756C66.7754 97.663 66.0042 99.2252 64.8342 100.586L58.9644 104.739C57.221 105.889 54.2284 107.036 50.1417 107.036C46.0549 107.036 43.0591 105.889 41.3189 104.739L35.4459 100.586C34.2759 99.2252 33.5047 97.6597 33.0499 95.9756C33.0499 95.9756 37.8749 101.222 50.145 101.845C62.4085 101.222 67.2302 95.9756 67.2302 95.9756Z" fill="#E5E5E5"/>
</g>
<g id="Group_47">
<path id="Vector_41" d="M61.9768 99.2913C60.0784 102.412 56.5487 105.046 50.1384 105.046C43.7315 105.046 40.1984 102.412 38.3 99.2946C41.0289 100.478 44.2489 101.615 50.1384 101.615C56.028 101.615 59.2479 100.471 61.9768 99.2913Z" fill="#E5E5E5"/>
</g>
<g id="Group_48">
<path id="Vector_42" d="M35.4426 100.587C34.5132 99.7989 33.7585 98.7839 33.2081 97.6699C33.0762 97.3897 32.9477 97.1063 32.8291 96.8163C32.7269 96.523 32.6083 96.2329 32.516 95.9363C32.4369 95.6364 32.3413 95.3365 32.2721 95.0333C32.2128 94.7301 32.1403 94.4236 32.0941 94.1171C31.8931 92.8877 31.8337 91.6419 31.8832 90.4093C31.9359 89.1734 32.0941 87.9507 32.3347 86.751C32.8225 84.3484 33.5607 82.0183 34.4737 79.7739C35.3899 77.5295 36.4643 75.3576 37.6936 73.2812C36.8499 75.5421 36.0095 77.7899 35.2976 80.0705C34.9449 81.2109 34.6055 82.3545 34.322 83.508C34.0287 84.6582 33.7848 85.8183 33.5904 86.9817C33.2114 89.3052 32.9971 91.6551 33.2311 93.9688C33.2608 94.2588 33.307 94.5422 33.3399 94.8322C33.3861 95.119 33.4421 95.4024 33.4915 95.6891C33.5508 95.9726 33.62 96.2527 33.686 96.5394C33.7618 96.8196 33.8573 97.0931 33.9331 97.3766C34.2957 98.4806 34.7999 99.5518 35.4426 100.587Z" fill="#371A45"/>
</g>
<g id="Group_49">
<path id="Vector_43" d="M64.8342 100.586C65.4769 99.5515 65.9811 98.4804 66.3404 97.3697C66.4162 97.0863 66.5117 96.8127 66.5875 96.5326C66.6535 96.2492 66.7227 95.969 66.782 95.6823C66.8314 95.3956 66.8908 95.1121 66.9336 94.8254C66.9699 94.5354 67.0127 94.2519 67.0424 93.9619C67.2731 91.6483 67.0621 89.2984 66.6831 86.9749C66.492 85.8115 66.2481 84.6514 65.9515 83.5012C65.668 82.3476 65.3286 81.2073 64.9759 80.0637C64.264 77.783 63.4269 75.5353 62.5799 73.2744C63.8125 75.3507 64.8869 77.5194 65.7999 79.7671C66.7128 82.0115 67.4543 84.3416 67.9388 86.7442C68.1794 87.9471 68.3376 89.1699 68.3903 90.4025C68.4398 91.6351 68.3804 92.8842 68.1794 94.1102C68.13 94.4167 68.0607 94.7232 68.0014 95.0264C67.9322 95.3296 67.8399 95.6296 67.7575 95.9295C67.6653 96.2261 67.5466 96.5194 67.4444 96.8094C67.3258 97.0995 67.1973 97.3829 67.0654 97.663C66.5183 98.7869 65.7636 99.7987 64.8342 100.586Z" fill="#371A45"/>
</g>
</g>
<g id="Group_50">
<g id="Group_51">
<g id="Group_52">
<g id="Group_53">
<path id="Vector_44" d="M76.6628 36.3555C76.6628 36.3555 82.8127 38.6856 83.4454 39.8259C84.6187 41.9352 84.4012 54.3404 81.1582 57.5769C79.8893 58.8424 70.5656 60.0256 70.5656 60.0256L76.6628 36.3555Z" fill="white"/>
</g>
<g id="Group_54">
<path id="Vector_45" d="M70.5623 60.0257C70.5623 60.0257 79.886 58.8426 81.1548 57.5737C82.4204 56.3114 83.2246 53.6517 83.6662 50.7515C83.564 50.8437 80.2683 53.688 73.6998 47.9105C73.6965 47.9072 73.6899 47.9039 73.6866 47.9006L70.5623 60.0257Z" fill="#E5E5E5"/>
</g>
<g id="Group_55">
<path id="Vector_46" d="M29.6256 60.0257C29.6256 60.0257 20.3019 58.8426 19.0331 57.5737C17.7675 56.3114 16.9633 53.6517 16.5217 50.7515C16.5184 50.7482 16.5184 50.7482 16.5184 50.7482C15.8296 46.2231 16.0273 41.1114 16.7425 39.8227C17.3753 38.6857 23.5252 36.3523 23.5252 36.3523L26.498 47.8973L29.6256 60.0257Z" fill="white"/>
</g>
<g id="Group_56">
<path id="Vector_47" d="M29.6256 60.0257C29.6256 60.0257 20.3019 58.8426 19.033 57.5737C17.7675 56.3114 16.9633 53.6517 16.5217 50.7515C16.6238 50.8437 19.9196 53.688 26.488 47.9105C26.4913 47.9072 26.4979 47.9039 26.5012 47.9006L29.6256 60.0257Z" fill="#E5E5E5"/>
</g>
<g id="Group_57">
<path id="Vector_48" d="M69.8141 60.6847L76.2738 35.6106L76.8572 35.8314C78.3436 36.395 83.251 38.3296 83.9299 39.5523C84.678 40.897 84.7868 44.9837 84.51 48.3256C84.2825 51.0512 83.597 55.929 81.5504 57.9723C80.2123 59.3071 72.2201 60.3782 70.6315 60.5826L69.8141 60.6847ZM77.0483 37.1036L71.3137 59.3599C75.0577 58.8457 80.0343 57.9031 80.7627 57.1781C83.7816 54.1657 84.0123 42.0011 82.9543 40.0961C82.6478 39.5424 79.7608 38.1681 77.0483 37.1036Z" fill="#371A45"/>
</g>
<g id="Group_58">
<path id="Vector_49" d="M30.3771 60.6849L29.5597 60.5794C27.9712 60.3784 19.9789 59.3039 18.6409 57.9692C16.5909 55.9258 15.9054 51.0481 15.6813 48.3225C15.4044 44.9806 15.5132 40.8971 16.2613 39.5492C16.9402 38.3264 21.8476 36.3918 23.334 35.8282L23.9174 35.6074L30.3771 60.6849ZM23.1429 37.1037C20.4305 38.1682 17.5434 39.5426 17.2369 40.0962C16.1789 42.0012 16.4129 54.1659 19.4285 57.1782C20.1569 57.9032 25.1335 58.8458 28.8775 59.36L23.1429 37.1037Z" fill="#371A45"/>
</g>
</g>
<g id="Group_59">
<path id="Vector_50" d="M50.0032 49.3015V49.407L49.9373 49.3542L50.0032 49.3015Z" fill="#D8D8D8"/>
</g>
<g id="Group_60">
<path id="Vector_51" d="M49.9374 49.3542L49.8682 49.407V49.3015L49.9374 49.3542Z" fill="#D8D8D8"/>
</g>
<g id="Group_61">
<path id="Vector_52" d="M50.0923 72.6385C65.8388 72.6385 78.6039 59.8734 78.6039 44.1269C78.6039 28.3803 65.8388 15.6152 50.0923 15.6152C34.3457 15.6152 21.5806 28.3803 21.5806 44.1269C21.5806 59.8734 34.3457 72.6385 50.0923 72.6385Z" fill="white"/>
</g>
<g id="Group_62">
<path id="Vector_53" d="M78.6039 44.127C78.6039 59.8741 65.8394 72.6386 50.0923 72.6386C34.3451 72.6386 21.5773 59.8741 21.5773 44.127C21.5773 42.4659 21.7191 40.8345 21.9959 39.2493C24.3095 52.6729 36.0095 62.8832 50.0923 62.8832C64.175 62.8832 75.875 52.6729 78.1886 39.2493C78.4622 40.8345 78.6039 42.4659 78.6039 44.127Z" fill="#E5E5E5"/>
</g>
<g id="Group_63">
<path id="Vector_54" d="M50.0922 73.2022C34.0617 73.2022 21.0203 60.1608 21.0203 44.1303C21.0203 28.0997 34.0617 15.0583 50.0922 15.0583C66.1228 15.0583 79.1641 28.0997 79.1641 44.1303C79.1641 60.1575 66.1228 73.2022 50.0922 73.2022ZM50.0922 16.1756C34.678 16.1756 22.1409 28.716 22.1409 44.127C22.1409 59.5412 34.6813 72.0783 50.0922 72.0783C65.5032 72.0783 78.0436 59.5379 78.0436 44.127C78.0436 28.716 65.5065 16.1756 50.0922 16.1756Z" fill="#371A45"/>
</g>
<g id="Group_64">
<path id="Vector_55" d="M50.0922 73.2022C34.0617 73.2022 21.0203 60.1608 21.0203 44.1303C21.0203 28.0997 34.0617 15.0583 50.0922 15.0583C66.1228 15.0583 79.1641 28.0997 79.1641 44.1303C79.1641 60.1575 66.1228 73.2022 50.0922 73.2022ZM50.0922 16.1756C34.678 16.1756 22.1409 28.716 22.1409 44.127C22.1409 59.5412 34.6813 72.0783 50.0922 72.0783C65.5032 72.0783 78.0436 59.5379 78.0436 44.127C78.0436 28.716 65.5065 16.1756 50.0922 16.1756Z" fill="#371A45"/>
</g>
<g id="Group_65">
<path id="Vector_56" d="M77.6119 37.2123C77.3943 37.2123 77.1867 37.0838 77.0977 36.8729C72.5726 26.3693 61.9735 19.5833 50.0922 19.5833C38.2176 19.5833 27.6217 26.3627 23.0934 36.8564C22.978 37.1266 22.6715 37.2618 22.3947 37.1629C22.1178 37.0673 21.9629 36.7707 22.0387 36.4873C25.463 23.8678 36.9982 15.0549 50.0922 15.0549C63.1962 15.0549 74.7347 23.8744 78.1524 36.5037C78.2282 36.7872 78.0733 37.0838 77.7964 37.1794C77.7338 37.2024 77.6712 37.2123 77.6119 37.2123ZM50.0922 18.4627C56.2125 18.4627 62.1086 20.1996 67.1445 23.4888C69.7712 25.2026 72.0783 27.2789 74.003 29.6387C69.0297 21.452 60.029 16.1755 50.0922 16.1755C40.1621 16.1755 31.1647 21.4454 26.1914 29.6288C28.1161 27.269 30.4231 25.1993 33.0466 23.4855C38.0825 20.1996 43.9753 18.4627 50.0922 18.4627Z" fill="#371A45"/>
</g>
<g id="Group_66">
<path id="Vector_57" d="M78.6039 44.1303C78.6039 46.5989 78.2908 48.9949 77.7009 51.2788C77.7009 51.2788 77.6976 51.2788 77.6976 51.2821C72.7506 60.8365 62.247 69.0595 50.089 69.0595C37.9309 69.0595 27.4306 60.8365 22.4837 51.2821C22.4837 51.2788 22.4804 51.2788 22.4804 51.2788C21.8904 48.9949 21.5773 46.5989 21.5773 44.1303C21.5773 43.0526 21.6367 41.9848 21.7586 40.9367C25.6048 30.2947 36.8334 22.5925 50.089 22.5925C63.3478 22.5925 74.5798 30.298 78.4226 40.9433C78.5446 41.9914 78.6039 43.0526 78.6039 44.1303Z" fill="#371A45"/>
</g>
<g id="Group_67" opacity="0.35">
<path id="Vector_58" d="M78.6039 44.1305C78.6039 46.599 78.2908 48.995 77.7009 51.279C77.7009 51.279 77.6976 51.279 77.6976 51.2823C72.7506 60.8367 62.247 69.0596 50.089 69.0596C37.9309 69.0596 27.4306 60.8367 22.4837 51.2823C22.4837 51.279 22.4804 51.279 22.4804 51.279C22.1277 49.9178 21.8773 48.5204 21.7256 47.0868C28.1194 54.2682 37.4135 59.492 47.7622 59.492C60.9452 59.492 72.4276 51.012 78.3699 40.8083C78.3897 40.8545 78.4061 40.9006 78.4226 40.9468C78.5446 41.9915 78.6039 43.0528 78.6039 44.1305Z" fill="#111A28"/>
</g>
<g id="Group_68" opacity="0.5">
<path id="Vector_59" d="M29.0917 51.2062C26.9824 51.2062 25.1631 42.8284 29.2037 35.8678C34.6681 26.4551 48.7476 26.198 49.0805 27.658C49.4133 29.118 38.8867 32.9543 34.3451 40.3796C30.9966 45.8605 31.201 51.2062 29.0917 51.2062Z" fill="white"/>
</g>
</g>
<g id="Group_69" opacity="0.5">
<path id="Vector_60" d="M73.9682 45.4861C74.3872 42.6961 73.0254 40.1789 70.9266 39.8637C68.8278 39.5485 66.7868 41.5548 66.3678 44.3448C65.9488 47.1347 67.3106 49.652 69.4094 49.9671C71.5082 50.2823 73.5492 48.2761 73.9682 45.4861Z" fill="white"/>
</g>
<g id="Group_70" opacity="0.5">
<path id="Vector_61" d="M69.0193 54.8764C69.5788 53.8051 69.2776 52.5425 68.3467 52.0564C67.4158 51.5702 66.2075 52.0446 65.6481 53.1159C65.0886 54.1872 65.3898 55.4498 66.3207 55.9359C67.2516 56.4221 68.4599 55.9477 69.0193 54.8764Z" fill="white"/>
</g>
</g>
<g id="Group_71">
<g id="Group_72">
<path id="Vector_62" d="M59.4621 88.7913C59.4621 88.7913 65.21 88.3529 67.6323 90.0964C70.203 91.9486 67.6126 94.0908 67.6126 94.0908C67.6126 94.0908 62.982 93.079 59.093 93.2241L59.4621 88.7913Z" fill="white"/>
</g>
<g id="Group_73">
<path id="Vector_63" d="M67.6126 94.0875C67.6126 94.0875 62.982 93.0757 59.093 93.2207L59.2314 91.5366C61.934 91.4542 64.9628 91.9156 66.5348 92.1958C67.3687 92.3474 68.2157 91.9255 68.565 91.151C68.5683 91.1444 68.5716 91.1345 68.5749 91.1279C69.3363 92.6638 67.6126 94.0875 67.6126 94.0875Z" fill="#D8D8D8"/>
</g>
<g id="Group_74">
<path id="Vector_64" d="M40.8081 88.7913C40.8081 88.7913 35.0603 88.3529 32.6379 90.0964C30.0672 91.9486 32.6577 94.0908 32.6577 94.0908C32.6577 94.0908 37.2882 93.079 41.1772 93.2241L40.8081 88.7913Z" fill="white"/>
</g>
<g id="Group_75">
<path id="Vector_65" d="M32.8785 94.0875C32.8785 94.0875 37.509 93.0757 41.398 93.2207L41.2596 91.5366C38.5571 91.4542 35.5283 91.9156 33.9562 92.1958C33.1224 92.3474 32.2753 91.9255 31.926 91.151C31.9227 91.1444 31.9194 91.1345 31.9161 91.1279C31.1548 92.6638 32.8785 94.0875 32.8785 94.0875Z" fill="#D8D8D8"/>
</g>
<g id="Group_76">
<path id="Vector_66" d="M67.7608 94.7005L67.4906 94.6412C67.4444 94.6313 62.8864 93.6492 59.1128 93.7876L58.4734 93.8107L58.9348 88.2639L59.416 88.2277C59.6599 88.2079 65.4011 87.7959 67.9586 89.635C68.8418 90.271 69.3033 91.0192 69.3296 91.8629C69.3791 93.3394 68.0245 94.4764 67.9685 94.5226L67.7608 94.7005ZM59.884 92.6407C63.0611 92.6407 66.4294 93.2702 67.4346 93.4745C67.718 93.1812 68.2222 92.5649 68.1992 91.8991C68.1827 91.4246 67.8795 90.973 67.2961 90.5545C65.4604 89.2329 61.3802 89.2724 59.9796 89.3317L59.7027 92.644C59.7686 92.6407 59.8246 92.6407 59.884 92.6407Z" fill="#371944"/>
</g>
<g id="Group_77">
<path id="Vector_67" d="M32.5094 94.7006L32.2984 94.5259C32.2424 94.4798 30.8879 93.3428 30.9373 91.8663C30.967 91.0225 31.4284 90.2711 32.3083 89.6383C34.8658 87.796 40.6071 88.2113 40.8509 88.231L41.3321 88.2673L41.7935 93.8141L41.1542 93.791C37.3838 93.6526 32.8225 94.6347 32.7763 94.6446L32.5094 94.7006ZM39.2064 89.3087C37.3904 89.3087 34.4506 89.49 32.9708 90.5545C32.3907 90.9731 32.0875 91.4246 32.0677 91.8992C32.0447 92.565 32.5489 93.1813 32.8324 93.4746C33.8409 93.2703 37.2058 92.6408 40.3829 92.6408C40.4423 92.6408 40.5016 92.6408 40.5609 92.6408L40.2841 89.3285C40.0138 89.3186 39.6447 89.3087 39.2064 89.3087Z" fill="#371944"/>
</g>
<g id="Group_78">
<path id="Vector_68" d="M59.8313 87.0775V95.2642C59.8313 96.7835 58.6349 98.026 57.1749 98.026H42.6604C41.197 98.026 40.004 96.7835 40.004 95.2642V87.0775C40.004 85.5615 41.2003 84.3157 42.6604 84.3157H57.1749C58.3416 84.3157 59.3402 85.11 59.6961 86.2041C59.7851 86.4777 59.8313 86.771 59.8313 87.0775Z" fill="white"/>
</g>
<g id="Group_79">
<path id="Vector_69" d="M59.8313 87.0774V95.264C59.8313 96.7834 58.6349 98.0259 57.1749 98.0259H42.6604C41.197 98.0259 40.004 96.7834 40.004 95.264V92.5088C42.5087 93.949 47.4689 96.111 52.4488 94.328C54.881 93.4547 57.6692 90.4687 57.6692 90.4687C57.6692 90.4687 57.778 93.603 58.2262 93.5535C59.472 93.4151 59.4621 87.0708 59.6994 86.2073C59.7851 86.4775 59.8313 86.7708 59.8313 87.0774Z" fill="#D8D8D8"/>
</g>
<g id="Group_80">
<path id="Vector_70" d="M57.6758 98.5896H42.1528C40.6532 98.5896 39.4305 97.3702 39.4305 95.8673V86.4711C39.4305 84.9715 40.6499 83.7488 42.1528 83.7488H57.6758C59.1754 83.7488 60.3981 84.9682 60.3981 86.4711V95.8673C60.3981 97.3702 59.1787 98.5896 57.6758 98.5896ZM42.1561 84.8825C41.2794 84.8825 40.5675 85.5944 40.5675 86.4711V95.8673C40.5675 96.744 41.2794 97.4558 42.1561 97.4558H57.6791C58.5558 97.4558 59.2677 96.744 59.2677 95.8673V86.4711C59.2677 85.5944 58.5558 84.8825 57.6791 84.8825H42.1561Z" fill="#371944"/>
</g>
<g id="Group_81">
<path id="Vector_71" d="M55.059 93.5503C56.3258 93.5503 57.3528 92.485 57.3528 91.1708C57.3528 89.8566 56.3258 88.7913 55.059 88.7913C53.7921 88.7913 52.7651 89.8566 52.7651 91.1708C52.7651 92.485 53.7921 93.5503 55.059 93.5503Z" fill="#22A7F0"/>
</g>
<g id="Group_82">
<path id="Vector_72" d="M57.3528 91.1709C57.3528 91.3324 57.3364 91.4906 57.3067 91.6422C57.0958 90.5513 56.1697 89.7307 55.059 89.7307C53.9483 89.7307 53.0222 90.5513 52.8113 91.6422C52.7816 91.4906 52.7651 91.3324 52.7651 91.1709C52.7651 89.8559 53.7901 88.7881 55.0557 88.7881C56.3213 88.7881 57.3528 89.8559 57.3528 91.1709Z" fill="white"/>
</g>
<g id="Group_83">
<path id="Vector_73" d="M57.3496 91.171C57.3496 92.486 56.3213 93.5505 55.0557 93.5505C53.7902 93.5505 52.7619 92.486 52.7619 91.171C52.7619 90.9502 52.7916 90.736 52.8443 90.5349C53.1145 91.5401 54.0011 92.2751 55.0525 92.2751C56.1038 92.2751 56.9937 91.5368 57.2606 90.5349C57.3232 90.736 57.3496 90.9502 57.3496 91.171Z" fill="#1C7AEA"/>
</g>
<g id="Group_84">
<path id="Vector_74" d="M55.059 93.9756C53.5594 93.9756 52.3433 92.7166 52.3433 91.1709C52.3433 89.6252 53.5627 88.3662 55.059 88.3662C56.5552 88.3662 57.7747 89.6252 57.7747 91.1709C57.7747 92.7166 56.5552 93.9756 55.059 93.9756ZM55.059 89.2132C54.0307 89.2132 53.1903 90.0899 53.1903 91.1709C53.1903 92.2486 54.0274 93.1286 55.059 93.1286C56.0872 93.1286 56.9277 92.2519 56.9277 91.1709C56.9277 90.0932 56.0872 89.2132 55.059 89.2132Z" fill="#371944"/>
</g>
<g id="Group_85">
<path id="Vector_75" d="M47.805 98.5896C47.4919 98.5896 47.2381 98.3358 47.2381 98.0227V93.8338C47.2381 92.9736 46.8459 92.1563 46.1868 91.6421L45.8176 91.3554C44.8882 90.6303 44.3345 89.4768 44.3345 88.2706V84.3156C44.3345 84.0026 44.5883 83.7488 44.9014 83.7488C45.2145 83.7488 45.4683 84.0026 45.4683 84.3156V88.2706C45.4683 89.1308 45.8605 89.9481 46.5196 90.4622L46.8887 90.749C47.8182 91.4773 48.3718 92.6276 48.3718 93.8338V98.0227C48.3685 98.3358 48.1148 98.5896 47.805 98.5896Z" fill="#371944"/>
</g>
</g>
<g id="Group_86">
<g id="Group_87">
<path id="Vector_76" d="M82.1106 81.1023C82.2359 81.1616 86.0458 83.4258 85.0603 85.4593C84.0683 87.5027 80.9143 84.5727 79.6948 83.9136" fill="white"/>
</g>
<g id="Group_88">
<path id="Vector_77" d="M82.1106 81.1023C82.5984 81.2572 83.0499 81.5011 83.4915 81.7647C83.9266 82.0383 84.3418 82.3547 84.7176 82.737C84.9054 82.9281 85.0801 83.1358 85.235 83.3731C85.3932 83.6071 85.5217 83.8674 85.6107 84.1608C85.6964 84.4508 85.7327 84.7804 85.6832 85.1034C85.6569 85.2648 85.6107 85.423 85.5514 85.5714C85.4888 85.7197 85.4163 85.8581 85.3141 85.9965C85.1196 86.27 84.7934 86.5139 84.444 86.5996C84.0947 86.6886 83.7651 86.6589 83.4784 86.5897C82.9016 86.448 82.4402 86.1778 82.0052 85.8943C81.5734 85.6043 81.1779 85.2813 80.8022 84.9452C80.4232 84.609 80.0738 84.253 79.6948 83.9169C79.942 83.9894 80.1727 84.0981 80.4034 84.2069C80.6341 84.3157 80.8549 84.4343 81.079 84.5497C81.5207 84.7837 81.9557 85.0177 82.3908 85.222C82.8225 85.4263 83.2641 85.6076 83.6695 85.6735C83.8706 85.7032 84.0551 85.7065 84.1869 85.6603C84.3221 85.6175 84.4209 85.5483 84.5165 85.4165C84.5627 85.3538 84.6088 85.2714 84.6451 85.189C84.6813 85.1066 84.7044 85.0243 84.7209 84.9419C84.7538 84.7738 84.7472 84.5925 84.7044 84.4014C84.622 84.019 84.3946 83.6203 84.1243 83.2412C83.8508 82.8622 83.5278 82.4997 83.1883 82.147C82.8489 81.7878 82.4863 81.4483 82.1106 81.1023Z" fill="#371A45"/>
</g>
</g>
<g id="Group_89">
<path id="Vector_78" d="M76.1815 84.6648C75.0214 82.2984 75.318 78.973 76.9033 76.5802C78.1194 74.7412 79.8761 73.7821 81.8469 73.8909L81.8041 74.6918C80.1265 74.6028 78.627 75.43 77.5723 77.0252C76.1617 79.1575 75.8783 82.2259 76.9033 84.3154L76.1815 84.6648Z" fill="#371A45"/>
</g>
<g id="Group_90">
<path id="Vector_79" d="M27.9481 89.8425L27.2659 89.4239C29.3653 86.0128 28.7852 80.6144 27.0088 77.3647L27.7108 76.9824C29.596 80.4298 30.1991 86.1875 27.9481 89.8425Z" fill="#371A45"/>
</g>
</g>
</g>
</g>
</g>
</g>
</svg>
