<svg width="13" height="15" viewBox="0 0 13 15" fill="none" xmlns="http://www.w3.org/2000/svg">
<g id="icon login">
<path id="Vector (Stroke)" fill-rule="evenodd" clip-rule="evenodd" d="M6.96144 1.45C5.91289 1.45 5.06287 2.25589 5.06287 3.25C5.06287 4.24411 5.91289 5.04999 6.96144 5.04999C8.01 5.04999 8.86002 4.24411 8.86002 3.25C8.86002 2.25589 8.01 1.45 6.96144 1.45ZM3.79715 3.25C3.79715 1.59314 5.21385 0.25 6.96144 0.25C8.70903 0.25 10.1257 1.59314 10.1257 3.25C10.1257 4.90685 8.70903 6.24999 6.96144 6.24999C5.21385 6.24999 3.79715 4.90685 3.79715 3.25Z" fill="white"/>
<path id="Vector (Stroke)_2" fill-rule="evenodd" clip-rule="evenodd" d="M3.50186 8.23949C5.39711 7.29763 7.7396 7.20024 9.72395 7.93805C10.0493 8.05904 10.2097 8.4072 10.0821 8.71569C9.95445 9.02419 9.58722 9.1762 9.26183 9.05521C7.60974 8.44094 5.65082 8.5264 4.08948 9.30233C2.55265 10.0661 1.38175 11.5057 1.26491 13.6805C1.24713 14.0115 0.949747 14.2661 0.600682 14.2492C0.251616 14.2324 -0.0169449 13.9504 0.000834206 13.6195C0.141206 11.0066 1.58209 9.19353 3.50186 8.23949Z" fill="white"/>
<path id="Vector 1 (Stroke)" fill-rule="evenodd" clip-rule="evenodd" d="M6.88235 10.6C6.88235 10.2686 7.15625 10 7.49412 10H12.3882C12.7261 10 13 10.2686 13 10.6C13 10.9314 12.7261 11.2 12.3882 11.2H7.49412C7.15625 11.2 6.88235 10.9314 6.88235 10.6Z" fill="white"/>
<path id="Vector 2 (Stroke)" fill-rule="evenodd" clip-rule="evenodd" d="M6.88235 13C6.88235 12.6686 7.15625 12.4 7.49412 12.4H12.3882C12.7261 12.4 13 12.6686 13 13C13 13.3314 12.7261 13.6 12.3882 13.6H7.49412C7.15625 13.6 6.88235 13.3314 6.88235 13Z" fill="white"/>
</g>
</svg>
