<svg width="14" height="14" viewBox="0 0 14 14" fill="none" xmlns="http://www.w3.org/2000/svg">
<g id="settings">
<g id="Vector">
<path fill-rule="evenodd" clip-rule="evenodd" d="M2.08244 0C2.45657 0 2.75986 0.303291 2.75986 0.677419L2.75986 2.78495C2.75986 3.15907 2.45657 3.46237 2.08244 3.46237C1.70831 3.46237 1.40502 3.15907 1.40502 2.78495L1.40502 0.677419C1.40502 0.303291 1.70831 0 2.08244 0Z" fill="white"/>
<path fill-rule="evenodd" clip-rule="evenodd" d="M3.48746 6.44803H0.677419C0.303291 6.44803 0 6.14474 0 5.77061C0 5.39648 0.303291 5.09319 0.677419 5.09319H3.48746C3.86158 5.09319 4.16487 5.39648 4.16487 5.77061C4.16487 6.14474 3.86158 6.44803 3.48746 6.44803Z" fill="white"/>
<path fill-rule="evenodd" clip-rule="evenodd" d="M2.08244 5.62007C2.45657 5.62007 2.75986 5.92336 2.75986 6.29749L2.75986 13.3226C2.75986 13.6967 2.45657 14 2.08244 14C1.70831 14 1.40502 13.6967 1.40502 13.3226L1.40502 6.29749C1.40502 5.92336 1.70831 5.62007 2.08244 5.62007Z" fill="white"/>
<path fill-rule="evenodd" clip-rule="evenodd" d="M7 9.83513C7.37413 9.83513 7.67742 10.1384 7.67742 10.5125V13.3226C7.67742 13.6967 7.37413 14 7 14C6.62587 14 6.32258 13.6967 6.32258 13.3226V10.5125C6.32258 10.1384 6.62587 9.83513 7 9.83513Z" fill="white"/>
<path fill-rule="evenodd" clip-rule="evenodd" d="M8.40502 8.55556H5.59498C5.22085 8.55556 4.91756 8.25226 4.91756 7.87814C4.91756 7.50401 5.22085 7.20072 5.59498 7.20072H8.40502C8.77915 7.20072 9.08244 7.50401 9.08244 7.87814C9.08244 8.25226 8.77915 8.55556 8.40502 8.55556Z" fill="white"/>
<path fill-rule="evenodd" clip-rule="evenodd" d="M7 0C7.37413 0 7.67742 0.303291 7.67742 0.677419V7.70251C7.67742 8.07664 7.37413 8.37993 7 8.37993C6.62587 8.37993 6.32258 8.07664 6.32258 7.70251L6.32258 0.677419C6.32258 0.303291 6.62587 0 7 0Z" fill="white"/>
<path fill-rule="evenodd" clip-rule="evenodd" d="M11.9176 0C12.2917 0 12.595 0.303291 12.595 0.677419V2.78495C12.595 3.15907 12.2917 3.46237 11.9176 3.46237C11.5434 3.46237 11.2401 3.15907 11.2401 2.78495V0.677419C11.2401 0.303291 11.5434 0 11.9176 0Z" fill="white"/>
<path fill-rule="evenodd" clip-rule="evenodd" d="M13.3226 6.44803H10.5125C10.1384 6.44803 9.83513 6.14474 9.83513 5.77061C9.83513 5.39648 10.1384 5.09319 10.5125 5.09319H13.3226C13.6967 5.09319 14 5.39648 14 5.77061C14 6.14474 13.6967 6.44803 13.3226 6.44803Z" fill="white"/>
<path fill-rule="evenodd" clip-rule="evenodd" d="M11.9176 5.62007C12.2917 5.62007 12.595 5.92336 12.595 6.29749V13.3226C12.595 13.6967 12.2917 14 11.9176 14C11.5434 14 11.2401 13.6967 11.2401 13.3226V6.29749C11.2401 5.92336 11.5434 5.62007 11.9176 5.62007Z" fill="white"/>
</g>
</g>
</svg>
