<svg width="17" height="11" viewBox="0 0 17 11" fill="none" xmlns="http://www.w3.org/2000/svg">
<path d="M7.00012 5.5C7.00012 4.67157 7.67169 4 8.50012 4C9.32855 4 10.0001 4.67157 10.0001 5.5C10.0001 6.32843 9.32855 7 8.50012 7C7.67169 7 7.00012 6.32843 7.00012 5.5Z" fill="#166CB9"/>
<path fill-rule="evenodd" clip-rule="evenodd" d="M15.5001 5.49998C15.9643 5.3143 15.9642 5.31409 15.9641 5.31385L15.9633 5.31182L15.9616 5.30752L15.9558 5.29356C15.951 5.28192 15.9441 5.26564 15.9352 5.24504C15.9173 5.20385 15.8912 5.14533 15.8566 5.07195C15.7875 4.92526 15.6841 4.71871 15.5444 4.47224C15.2657 3.98029 14.8391 3.32375 14.2467 2.66552C13.0612 1.34827 11.186 0 8.50005 0C5.81406 0 3.93893 1.34827 2.75341 2.66552C2.161 3.32375 1.73445 3.98029 1.45567 4.47224C1.31601 4.71872 1.21266 4.92526 1.1435 5.07195C1.10891 5.14533 1.08282 5.20386 1.06497 5.24505C1.05604 5.26564 1.04917 5.28192 1.04433 5.29356L1.03857 5.30752L1.03682 5.31182L1.03623 5.31329C1.03614 5.31353 1.03582 5.31431 1.50006 5.5L1.03582 5.31431L0.961548 5.5L1.03582 5.68569L1.50006 5.5C1.03582 5.68569 1.03573 5.68546 1.03582 5.68569L1.03623 5.68671L1.03682 5.68818L1.03857 5.69248L1.04433 5.70644C1.04917 5.71808 1.05604 5.73436 1.06497 5.75495C1.08282 5.79614 1.10891 5.85467 1.1435 5.92805C1.21266 6.07474 1.31601 6.28128 1.45567 6.52776C1.73445 7.01971 2.161 7.67625 2.75341 8.33448C3.93893 9.65173 5.81406 11 8.50005 11C11.186 11 13.0612 9.65173 14.2467 8.33448C14.8391 7.67625 15.2657 7.01971 15.5444 6.52776C15.6841 6.28129 15.7875 6.07474 15.8566 5.92805C15.8912 5.85467 15.9173 5.79615 15.9352 5.75496C15.9441 5.73436 15.951 5.71808 15.9558 5.70644L15.9616 5.69248L15.9633 5.68818L15.9639 5.68671C15.964 5.68647 15.9643 5.68566 15.5001 5.49998L15.9643 5.6857L16.0386 5.5L15.9641 5.31385L15.5001 5.49998ZM8.50012 3C7.11941 3 6.00012 4.11929 6.00012 5.5C6.00012 6.88071 7.11941 8 8.50012 8C9.88083 8 11.0001 6.88071 11.0001 5.5C11.0001 4.11929 9.88083 3 8.50012 3Z" fill="#166CB9"/>
</svg>
